<svg width="48" height="48" viewBox="0 0 48 48" fill="none" xmlns="http://www.w3.org/2000/svg">
<path d="M26.52 6.60002C26.833 6.3761 27.1993 6.23822 27.5823 6.20013C27.9652 6.16204 28.3515 6.22509 28.7025 6.38297C29.0535 6.54086 29.3569 6.78805 29.5825 7.09988C29.8081 7.41171 29.9479 7.77725 29.988 8.16002L30 8.38802V39.612C30.0001 39.9969 29.8993 40.3751 29.7075 40.7088C29.5158 41.0425 29.2399 41.3201 28.9073 41.5138C28.5747 41.7075 28.1971 41.8106 27.8123 41.8127C27.4274 41.8149 27.0487 41.716 26.714 41.526L26.522 41.402L13.36 32H8C6.99085 32.0003 6.01887 31.6192 5.2789 30.933C4.53894 30.2468 4.08569 29.3063 4.01 28.3L4 28V20C3.99968 18.9909 4.38081 18.0189 5.06699 17.2789C5.75317 16.539 6.69369 16.0857 7.7 16.01L8 16H13.36L26.52 6.60002ZM39.334 13.566C40.8019 14.8791 41.9763 16.4872 42.7803 18.2852C43.5843 20.0831 43.9999 22.0305 44 24C43.9999 25.9696 43.5843 27.9169 42.7803 29.7149C41.9763 31.5128 40.8019 33.1209 39.334 34.434C39.1388 34.6121 38.9103 34.7497 38.6616 34.8389C38.4129 34.9281 38.149 34.9672 37.8851 34.9538C37.6213 34.9405 37.3627 34.875 37.1242 34.7611C36.8858 34.6473 36.6723 34.4873 36.4961 34.2904C36.3199 34.0936 36.1844 33.8638 36.0975 33.6143C36.0106 33.3648 35.974 33.1006 35.9898 32.8368C36.0056 32.5731 36.0734 32.3151 36.1895 32.0778C36.3056 31.8404 36.4675 31.6284 36.666 31.454C37.7149 30.5161 38.554 29.3673 39.1285 28.0828C39.703 26.7984 40 25.4071 40 24C40 21.04 38.716 18.38 36.666 16.546C36.4675 16.3716 36.3056 16.1596 36.1895 15.9223C36.0734 15.6849 36.0056 15.427 35.9898 15.1632C35.974 14.8995 36.0106 14.6352 36.0975 14.3857C36.1844 14.1362 36.3199 13.9064 36.4961 13.7096C36.6723 13.5127 36.8858 13.3528 37.1242 13.2389C37.3627 13.125 37.6213 13.0596 37.8851 13.0462C38.149 13.0329 38.4129 13.0719 38.6616 13.1611C38.9103 13.2504 39.1388 13.388 39.334 13.566ZM35.334 18.038C36.1725 18.7881 36.8433 19.7067 37.3027 20.7337C37.7621 21.7606 37.9997 22.873 38 23.998C38.0002 25.1237 37.7629 26.2368 37.3035 27.2645C36.8441 28.2923 36.173 29.2114 35.334 29.962C34.9547 30.2989 34.4616 30.479 33.9545 30.466C33.4474 30.4529 32.9642 30.2477 32.6028 29.8918C32.2413 29.536 32.0285 29.056 32.0076 28.5492C31.9867 28.0424 32.1591 27.5465 32.49 27.162L32.666 26.982C33.486 26.246 34 25.184 34 24C34.0003 22.9762 33.6081 21.9913 32.904 21.248L32.666 21.018C32.4675 20.8436 32.3056 20.6316 32.1895 20.3943C32.0734 20.1569 32.0056 19.899 31.9898 19.6352C31.974 19.3715 32.0106 19.1072 32.0975 18.8577C32.1844 18.6082 32.3199 18.3784 32.4961 18.1816C32.6723 17.9848 32.8858 17.8248 33.1242 17.7109C33.3627 17.597 33.6213 17.5316 33.8851 17.5182C34.149 17.5049 34.4129 17.5439 34.6616 17.6331C34.9103 17.7224 35.1388 17.86 35.334 18.038Z" fill="white"/>
</svg>
