<svg width="48" height="48" viewBox="0 0 48 48" fill="none" xmlns="http://www.w3.org/2000/svg">
<path d="M26.52 6.60002C26.833 6.3761 27.1993 6.23822 27.5823 6.20013C27.9652 6.16204 28.3515 6.22509 28.7025 6.38297C29.0535 6.54086 29.3569 6.78805 29.5825 7.09988C29.8081 7.41171 29.9479 7.77725 29.988 8.16002L30 8.38802V39.612C30.0001 39.9969 29.8993 40.3751 29.7075 40.7088C29.5158 41.0425 29.2399 41.3201 28.9073 41.5138C28.5747 41.7075 28.1971 41.8106 27.8123 41.8127C27.4274 41.8149 27.0487 41.716 26.714 41.526L26.522 41.402L13.36 32H8C6.99085 32.0003 6.01887 31.6192 5.2789 30.933C4.53894 30.2468 4.08569 29.3063 4.01 28.3L4 28V20C4.00019 18.9912 4.38154 18.0197 5.06767 17.2802C5.75381 16.5407 6.69403 16.0877 7.7 16.012L8 16H13.36L26.52 6.60002ZM35.172 18.344L38 21.172L40.828 18.344C41.0125 18.153 41.2332 18.0006 41.4772 17.8958C41.7212 17.791 41.9836 17.7358 42.2492 17.7335C42.5148 17.7312 42.7781 17.7818 43.0239 17.8824C43.2697 17.9829 43.493 18.1314 43.6808 18.3192C43.8686 18.507 44.0171 18.7303 44.1176 18.9761C44.2182 19.2219 44.2688 19.4853 44.2665 19.7508C44.2642 20.0164 44.209 20.2788 44.1042 20.5228C43.9994 20.7668 43.847 20.9875 43.656 21.172L40.828 24L43.656 26.828C44.0313 27.203 44.2422 27.7118 44.2424 28.2423C44.2426 28.7729 44.032 29.2817 43.657 29.657C43.282 30.0323 42.7732 30.2432 42.2427 30.2434C41.7122 30.2436 41.2033 30.033 40.828 29.658L38 26.828L35.172 29.658C34.7967 30.033 34.2878 30.2436 33.7573 30.2434C33.2268 30.2432 32.718 30.0323 32.343 29.657C31.968 29.2817 31.7574 28.7729 31.7576 28.2423C31.7578 27.7118 31.9687 27.203 32.344 26.828L35.172 24L32.344 21.172C32.153 20.9875 32.0006 20.7668 31.8958 20.5228C31.791 20.2788 31.7358 20.0164 31.7335 19.7508C31.7312 19.4853 31.7818 19.2219 31.8824 18.9761C31.9829 18.7303 32.1314 18.507 32.3192 18.3192C32.507 18.1314 32.7303 17.9829 32.9761 17.8824C33.2219 17.7818 33.4852 17.7312 33.7508 17.7335C34.0164 17.7358 34.2788 17.791 34.5228 17.8958C34.7668 18.0006 34.9875 18.153 35.172 18.344Z" fill="white"/>
</svg>
